<svg width="60" height="61" viewBox="0 0 60 61" fill="none" xmlns="http://www.w3.org/2000/svg">
<path d="M30 26C28.7574 26 27.75 27.0074 27.75 28.25C27.75 29.4926 28.7574 30.5 30 30.5C31.2426 30.5 32.25 29.4926 32.25 28.25C32.25 27.0074 31.2426 26 30 26Z" fill="#FF0000"/>
<path fill-rule="evenodd" clip-rule="evenodd" d="M19.5 23.375C19.5 22.3395 20.3395 21.5 21.375 21.5H38.625C39.6605 21.5 40.5 22.3395 40.5 23.375V33.125C40.5 34.1605 39.6605 35 38.625 35H21.375C20.3395 35 19.5 34.1605 19.5 33.125V23.375ZM26.25 28.25C26.25 26.1789 27.9289 24.5 30 24.5C32.0711 24.5 33.75 26.1789 33.75 28.25C33.75 30.3211 32.0711 32 30 32C27.9289 32 26.25 30.3211 26.25 28.25ZM36.75 27.5C36.3358 27.5 36 27.8358 36 28.25V28.2575C36 28.6717 36.3358 29.0075 36.75 29.0075H36.7575C37.1717 29.0075 37.5075 28.6717 37.5075 28.2575V28.25C37.5075 27.8358 37.1717 27.5 36.7575 27.5H36.75ZM22.5 28.25C22.5 27.8358 22.8358 27.5 23.25 27.5H23.2575C23.6717 27.5 24.0075 27.8358 24.0075 28.25V28.2575C24.0075 28.6717 23.6717 29.0075 23.2575 29.0075H23.25C22.8358 29.0075 22.5 28.6717 22.5 28.2575V28.25Z" fill="white"/>
<path d="M20.25 36.5C19.8358 36.5 19.5 36.8358 19.5 37.25C19.5 37.6642 19.8358 38 20.25 38C25.65 38 30.8802 38.7222 35.8498 40.0749C37.0404 40.399 38.25 39.5168 38.25 38.2551V37.25C38.25 36.8358 37.9142 36.5 37.5 36.5H20.25Z" fill="#FF0000"/>
</svg>
