<svg width="19" height="19" viewBox="0 0 19 19" fill="none" xmlns="http://www.w3.org/2000/svg">
<path d="M8.71875 0.90625C7.70862 0.90625 6.84802 1.56543 6.52148 2.46875H0.125V4.03125H6.52148C6.84802 4.93457 7.70862 5.59375 8.71875 5.59375C9.72888 5.59375 10.5895 4.93457 10.916 4.03125H18.875V2.46875H10.916C10.5895 1.56543 9.72888 0.90625 8.71875 0.90625ZM8.71875 2.46875C9.1582 2.46875 9.5 2.81055 9.5 3.25C9.5 3.68945 9.1582 4.03125 8.71875 4.03125C8.2793 4.03125 7.9375 3.68945 7.9375 3.25C7.9375 2.81055 8.2793 2.46875 8.71875 2.46875ZM14.1875 7.15625C13.1774 7.15625 12.3168 7.81543 11.9902 8.71875H0.125V10.2812H11.9902C12.3168 11.1846 13.1774 11.8438 14.1875 11.8438C15.1976 11.8438 16.0582 11.1846 16.3848 10.2812H18.875V8.71875H16.3848C16.0582 7.81543 15.1976 7.15625 14.1875 7.15625ZM14.1875 8.71875C14.627 8.71875 14.9688 9.06055 14.9688 9.5C14.9688 9.93945 14.627 10.2812 14.1875 10.2812C13.748 10.2812 13.4062 9.93945 13.4062 9.5C13.4062 9.06055 13.748 8.71875 14.1875 8.71875ZM5.59375 13.4062C4.58362 13.4062 3.72302 14.0654 3.39648 14.9688H0.125V16.5312H3.39648C3.72302 17.4346 4.58362 18.0938 5.59375 18.0938C6.60388 18.0938 7.46448 17.4346 7.79102 16.5312H18.875V14.9688H7.79102C7.46448 14.0654 6.60388 13.4062 5.59375 13.4062ZM5.59375 14.9688C6.0332 14.9688 6.375 15.3105 6.375 15.75C6.375 16.1895 6.0332 16.5312 5.59375 16.5312C5.1543 16.5312 4.8125 16.1895 4.8125 15.75C4.8125 15.3105 5.1543 14.9688 5.59375 14.9688Z" fill="#293676"/>
</svg>
