<svg width="50" height="50" viewBox="0 0 50 50" fill="none" xmlns="http://www.w3.org/2000/svg">
<path fill-rule="evenodd" clip-rule="evenodd" d="M25.3993 37.3095C27.7405 36.1537 39.5833 29.7629 39.5833 18.7501C39.5833 10.6959 33.0541 4.16675 25 4.16675C16.9458 4.16675 10.4166 10.6959 10.4166 18.7501C10.4166 29.7629 22.2594 36.1537 24.6007 37.3095C24.8561 37.4356 25.1438 37.4356 25.3993 37.3095ZM25 25.0001C28.4517 25.0001 31.25 22.2019 31.25 18.7501C31.25 15.2983 28.4517 12.5001 25 12.5001C21.5482 12.5001 18.75 15.2983 18.75 18.7501C18.75 22.2019 21.5482 25.0001 25 25.0001Z" fill="#E94100"/>
<path d="M37.6295 34.375C38.9095 35.3251 39.5833 36.4029 39.5833 37.5C39.5833 38.5971 38.9095 39.6749 37.6295 40.625C36.3495 41.5751 34.5086 42.3641 32.2916 42.9127C30.0747 43.4612 27.5599 43.75 25 43.75C22.4401 43.75 19.9252 43.4612 17.7083 42.9127C15.4913 42.3641 13.6504 41.5751 12.3704 40.625C11.0905 39.6749 10.4166 38.5971 10.4166 37.5C10.4166 36.4029 11.0905 35.3251 12.3704 34.375" stroke="#E94100" stroke-width="2" stroke-linecap="round"/>
</svg>
