<svg width="61" height="61" viewBox="0 0 61 61" fill="none" xmlns="http://www.w3.org/2000/svg">
<path fill-rule="evenodd" clip-rule="evenodd" d="M19.8672 21.7999C19.8672 21.3028 20.2701 20.8999 20.7672 20.8999H33.3672C33.8642 20.8999 34.2672 21.3028 34.2672 21.7999C34.2672 22.297 33.8642 22.6999 33.3672 22.6999H33.0672V39.1999C33.0672 39.697 32.6642 40.0999 32.1672 40.0999H30.3672C29.8701 40.0999 29.4672 39.697 29.4672 39.1999V36.1999C29.4672 35.7028 29.0642 35.2999 28.5672 35.2999H25.5672C25.0701 35.2999 24.6672 35.7028 24.6672 36.1999V39.1999C24.6672 39.697 24.2642 40.0999 23.7672 40.0999H20.7672C20.2701 40.0999 19.8672 39.697 19.8672 39.1999C19.8672 38.7028 20.2701 38.2999 20.7672 38.2999H21.0672V22.6999H20.7672C20.2701 22.6999 19.8672 22.297 19.8672 21.7999ZM23.4672 25.0999C23.4672 24.7685 23.7358 24.4999 24.0672 24.4999H25.2672C25.5986 24.4999 25.8672 24.7685 25.8672 25.0999V26.2999C25.8672 26.6313 25.5986 26.8999 25.2672 26.8999H24.0672C23.7358 26.8999 23.4672 26.6313 23.4672 26.2999V25.0999ZM24.0672 29.2999C23.7358 29.2999 23.4672 29.5685 23.4672 29.8999V31.0999C23.4672 31.4313 23.7358 31.6999 24.0672 31.6999H25.2672C25.5986 31.6999 25.8672 31.4313 25.8672 31.0999V29.8999C25.8672 29.5685 25.5986 29.2999 25.2672 29.2999H24.0672ZM28.2672 25.0999C28.2672 24.7685 28.5358 24.4999 28.8672 24.4999H30.0672C30.3986 24.4999 30.6672 24.7685 30.6672 25.0999V26.2999C30.6672 26.6313 30.3986 26.8999 30.0672 26.8999H28.8672C28.5358 26.8999 28.2672 26.6313 28.2672 26.2999V25.0999ZM28.8672 29.2999C28.5358 29.2999 28.2672 29.5685 28.2672 29.8999V31.0999C28.2672 31.4313 28.5358 31.6999 28.8672 31.6999H30.0672C30.3986 31.6999 30.6672 31.4313 30.6672 31.0999V29.8999C30.6672 29.5685 30.3986 29.2999 30.0672 29.2999H28.8672Z" fill="white"/>
<path fill-rule="evenodd" clip-rule="evenodd" d="M35.7672 25.6999C35.2701 25.6999 34.8672 26.1028 34.8672 26.5999V38.8999C34.8672 39.5626 35.4044 40.0999 36.0672 40.0999H40.5672C41.0642 40.0999 41.4672 39.697 41.4672 39.1999C41.4672 38.7028 41.0642 38.2999 40.5672 38.2999H40.2672V27.4999H40.5672C41.0642 27.4999 41.4672 27.097 41.4672 26.5999C41.4672 26.1028 41.0642 25.6999 40.5672 25.6999H35.7672ZM36.3672 29.8999C36.3672 29.5685 36.6358 29.2999 36.9672 29.2999H38.1672C38.4986 29.2999 38.7672 29.5685 38.7672 29.8999V31.0999C38.7672 31.4313 38.4986 31.6999 38.1672 31.6999H36.9672C36.6358 31.6999 36.3672 31.4313 36.3672 31.0999V29.8999ZM36.9672 34.0999C36.6358 34.0999 36.3672 34.3685 36.3672 34.6999V35.8999C36.3672 36.2313 36.6358 36.4999 36.9672 36.4999H38.1672C38.4986 36.4999 38.7672 36.2313 38.7672 35.8999V34.6999C38.7672 34.3685 38.4986 34.0999 38.1672 34.0999H36.9672Z" fill="#DE0000"/>
</svg>
