<svg width="30" height="30" viewBox="0 0 30 30" fill="none" xmlns="http://www.w3.org/2000/svg">
<path d="M27.5 10L28.2071 9.29289L28.9142 10L28.2071 10.7071L27.5 10ZM3.75 11C3.19772 11 2.75 10.5523 2.75 10C2.75 9.44772 3.19772 9 3.75 9V11ZM23.2071 4.29289L28.2071 9.29289L26.7929 10.7071L21.7929 5.70711L23.2071 4.29289ZM28.2071 10.7071L23.2071 15.7071L21.7929 14.2929L26.7929 9.29289L28.2071 10.7071ZM27.5 11H3.75V9H27.5V11Z" fill="white"/>
<path d="M2.5 20L1.79289 19.2929L1.08579 20L1.79289 20.7071L2.5 20ZM13.75 21C14.3023 21 14.75 20.5523 14.75 20C14.75 19.4477 14.3023 19 13.75 19L13.75 21ZM6.79289 14.2929L1.79289 19.2929L3.20711 20.7071L8.20711 15.7071L6.79289 14.2929ZM1.79289 20.7071L6.79289 25.7071L8.20711 24.2929L3.20711 19.2929L1.79289 20.7071ZM2.5 21L13.75 21L13.75 19L2.5 19L2.5 21Z" fill="white"/>
</svg>
